<?xml version="1.0" encoding="utf-8"?>
<!-- Generator: Adobe Illustrator 22.0.1, SVG Export Plug-In . SVG Version: 6.00 Build 0)  -->
<svg version="1.1" id="Слой_1" xmlns="http://www.w3.org/2000/svg" xmlns:xlink="http://www.w3.org/1999/xlink" x="0px" y="0px"
	 viewBox="0 0 69 66.7" style="enable-background:new 0 0 69 66.7;" xml:space="preserve">
<style type="text/css">
	.st0{fill-rule:evenodd;clip-rule:evenodd;fill:#4D6AAF;}
	.st1{fill-rule:evenodd;clip-rule:evenodd;fill:#D24B46;}
	.st2{fill:#506CAC;}
</style>
<polygon class="st0" points="57.1,0.6 68.3,0.6 40,42.5 28.9,42.5 0.5,0.7 11.7,0.7 34.4,34.2 "/>
<path class="st1" d="M51,0.6L47.9,5c0,0-14.1-0.1-18.6,0c-0.5,0-0.8,0.1-1.1,0.3c-0.5,0.4-0.8,0.8,0,2.1c0.4,0.6,0.9,1.4,4,6.2
	c0.3,0.5,0.7,1.1,1.9,1.1c1.3,0,1.7-0.3,2-0.7c0.8-1.1,1.5-2,1.5-2l5.3,0c0,0-3.1,4.6-5.4,8c-1.2,1.7-5.9,1.4-6.7,0.2L20.3,4.8
	c-1.1-1.6,0.6-4.1,2.1-4.1C32.7,0.7,51,0.6,51,0.6"/>
<path class="st2" d="M54.2,48.7h3.3v11.8l7.2-11.8h3.6v17.7H65V54.9l-7.2,11.6h-3.6V48.7z M38.7,58.7v4.7H42c1.3,0,2.1,0,2.5-0.1
	c0.5-0.1,1-0.3,1.3-0.7c0.3-0.4,0.5-0.9,0.5-1.5c0-0.5-0.1-1-0.4-1.4c-0.3-0.4-0.6-0.6-1.1-0.8c-0.5-0.2-1.5-0.3-3.2-0.3H38.7z
	 M38.7,51.7v4.1H41c1.4,0,2.3,0,2.6-0.1c0.6-0.1,1.1-0.3,1.4-0.6c0.4-0.4,0.5-0.8,0.5-1.4c0-0.5-0.1-1-0.4-1.3
	c-0.3-0.3-0.8-0.5-1.3-0.6c-0.4,0-1.4-0.1-3.1-0.1H38.7z M35.1,48.7h7.1c1.4,0,2.4,0.1,3.1,0.2c0.7,0.1,1.3,0.4,1.8,0.7
	c0.5,0.4,1,0.9,1.4,1.5c0.4,0.6,0.5,1.3,0.5,2.1c0,0.8-0.2,1.6-0.7,2.3c-0.4,0.7-1.1,1.2-1.8,1.6c1.1,0.3,1.9,0.8,2.5,1.6
	c0.6,0.8,0.9,1.6,0.9,2.7c0,0.8-0.2,1.6-0.6,2.3c-0.4,0.8-0.9,1.4-1.5,1.8c-0.6,0.5-1.4,0.7-2.4,0.8c-0.6,0.1-2,0.1-4.3,0.1h-6V48.7
	z M25.4,59.4l-2.4-6.6l-2.4,6.6H25.4z M32,66.4h-3.9l-1.5-4h-7.1l-1.5,4h-3.8l6.9-17.7h3.8L32,66.4z M4,51.7v5h2
	c1.4,0,2.4-0.1,2.8-0.3c0.5-0.2,0.8-0.5,1.1-0.9c0.3-0.4,0.4-0.9,0.4-1.4c0-0.6-0.2-1.2-0.6-1.6c-0.4-0.4-0.9-0.7-1.4-0.8
	c-0.4-0.1-1.3-0.1-2.6-0.1H4z M0.5,66.4V48.7h5.7c2.2,0,3.6,0.1,4.2,0.3c1,0.3,1.9,0.8,2.6,1.7c0.7,0.9,1,2,1,3.4
	c0,1.1-0.2,2-0.6,2.7c-0.4,0.7-0.9,1.3-1.5,1.7c-0.6,0.4-1.2,0.7-1.8,0.8c-0.9,0.2-2.1,0.3-3.7,0.3H4v6.7H0.5z"/>
</svg>
